<svg xmlns="http://www.w3.org/2000/svg" xml:space="preserve" width="1430.808" height="1767.9739" viewBox="0 0 1430.8079 1767.9738"><path d="M434.807 797.823c95.049-4.989 170.741-91.47 210.992-152.731-62.066-124.538-36.33-257.077 49.889-343.28-37.376 77.96-6.359 251.445 40.197 268.5 132.932 7.39 233.925 100.104 259.152 218.15-76.781-82.754-113.201-117.382-245.397-103.157-155.633 140.739-195.945 129.117-314.833 112.518Z" style="display:inline;fill:#072767;fill-opacity:1;stroke-width:9.94945" transform="translate(2.94 -5.743)"/><path d="M470.28 133.04c-191.712 54.2-226.006 128.983-312.564 207.285C322.193 20.9 648.64-24.581 822.254 64.58 547.673 106.903 328.53 322.636 420.507 687.143c-179.034-270.637 22.341-518.5 49.773-554.103ZM140.837 614.576c-76.355-443.98-38.177-221.99 0 0z" style="display:inline;opacity:1;fill:#0470b5;fill-opacity:1;stroke-width:9.94945" transform="translate(2.94 -5.743)"/><path d="M180.507 945.03C27.847 762.427 66.246 396.382 264.341 257.365 168.001 487.628 179.32 653.873 389.7 792.563c-175.846-38.55-210.907-141.02-244.932-193.472 0 0-39.809 188.76 35.74 345.939z" style="display:inline;opacity:1;fill:#58b2a3;fill-opacity:1;stroke-width:9.94945" transform="translate(2.94 -5.743)"/><path d="M1252.67 681.324c53.888-191.8 8.02-260.097-13.557-374.805 186.523 307.074 54.84 609.225-111.862 710.727 107.294-256.27 37.75-555.817-321.141-667.722 324.297-11.357 430.521 289.814 446.56 331.8zM1014.04 148.91c418.509 166.73 209.255 83.365 0 0z" style="display:inline;fill:#e33c11;fill-opacity:1;stroke-width:9.94945" transform="translate(2.94 -5.743)"/><path d="M707.793 9.823c235.11-37.053 529.324 184.083 546.709 425.465-147.964-201.02-296.372-276.786-523.493-167.65 123.475-131.004 229.39-108.39 291.873-110.606 0 0-141.433-131.195-315.089-147.209z" style="display:inline;fill:#9b488e;fill-opacity:1;stroke-width:9.94945" transform="translate(2.94 -5.743)"/><path d="M403.045 1082.944c144.795 136.84 226.585 127.962 338.183 162.157-358.58 22.475-564.94-234.53-577.357-429.306 177.066 214.088 474.625 291.698 740.481 25.905-140.635 292.437-456.676 246.551-501.307 241.243zm582.328 36.095c-342.104 293.108-171.052 146.554 0 0z" style="display:inline;fill:#8fc443;fill-opacity:1;stroke-width:9.94945" transform="translate(2.94 -5.743)"/><path d="M1245.092 908.106c-74.312 226.113-405.336 387.004-628.056 292.329 246.39-39.934 381.528-137.418 388.054-389.315 60.227 169.65-8.225 253.577-34.766 310.186 0 0 181.277-65.984 274.768-213.2z" style="display:inline;fill:#f9ac1d;fill-opacity:1;stroke-width:9.94945" transform="translate(2.94 -5.743)"/><path d="M528.099 1426.667c238.156 4.707 235.022 342.193 3.527 347.05-249.346-1.056-233.84-345.564-3.527-347.05zm.532 68.259c-115.668.777-109.296 212.122 1.204 212.531 112.393 2.055 99.926-212.783-1.204-212.531zM24.294 1476.36c-.093-25.346-27.233-42.988-27.233-42.988h124.705l1.486 137.037 98.578-116.956c13.387-13.182 26.409-16.67 39.734-16.771h77.502l-127.66 153.491 135.4 176.661-109.99-1.075-111.908-148.222-3.113 148.619h-94.3Zm722.515 52.37c-18.716-44.937-27.13-57.463-41.367-71.761l-23.45-22.1s83.47.249 125.204 1.3l41.565 110.806s43.473 108.784 45.805 106.313l69.066-168.443c15.05-38.848 19.634-47.103 38.162-47.547h73.954l-129.803 328.999H840.323Zm503.177-102.064c238.156 4.707 235.022 342.193 3.527 347.05-249.346-1.056-233.84-345.564-3.527-347.05zm.532 68.259c-115.667.777-109.296 212.122 1.204 212.531 112.393 2.055 99.926-212.783-1.204-212.531z" style="display:inline;fill:#072767;fill-opacity:1;stroke-width:5.59541" transform="translate(2.94 -5.743)"/></svg>